<?xml version="1.0" encoding="UTF-8" standalone="no"?>
<svg
   viewBox="0 0 211.45822 291.01303"
   version="1.1"
   id="svg1"
   xmlns="http://www.w3.org/2000/svg"
   xmlns:svg="http://www.w3.org/2000/svg">
   <defs
      id="defs1" />
   <g
      id="layer1"
      transform="translate(0.52916667,-2.38125)">
      <path
         d="M 17.190682,134.87532 H -0.52916667 V 3.1340584 H 17.190682 V 58.465243 h 4.219004 V 3.1340584 H 39.129652 V 134.87532 H 21.409686 V 72.957001 h -4.219004 z"
         fill="#ffffff"
         id="path1"
         style="stroke-width:0.278429" />
      <path
         d="M 43.139336,116.80798 V 21.201433 c 0,-13.1741335 6.328478,-18.820183 19.829266,-18.820183 13.500785,0 19.829261,5.6460495 19.829261,18.820183 v 95.606547 c 0,13.17414 -6.328476,18.82008 -19.829261,18.82008 -13.500788,0 -19.829266,-5.64594 -19.829266,-18.82008 z M 60.85901,19.1312 v 99.74688 c 0,1.50575 0.843836,2.25849 2.109592,2.25849 1.265751,0 2.109586,-0.75274 2.109586,-2.25849 V 19.1312 c 0,-1.505611 -0.843835,-2.258404 -2.109586,-2.258404 -1.265756,0 -2.109592,0.752793 -2.109592,2.258404 z"
         fill="#ffffff"
         id="path2"
         style="stroke-width:0.278429" />
      <path
         d="M 104.95939,134.87532 H 86.817511 V 3.1340584 h 18.141879 c 15.18817,0 21.51694,5.6460336 21.51694,18.8201666 v 28.230354 c 0,9.221787 -4.6411,13.362251 -13.29012,14.867731 v 1.881981 c 8.64902,1.317625 13.29012,5.458089 13.29012,15.244498 v 33.876191 c 0,13.17413 -6.32877,18.82034 -21.51694,18.82034 z M 104.53748,17.625589 v 41.028037 h 1.47641 c 1.89864,0 2.74247,-0.753004 2.74247,-2.446602 V 20.072191 c 0,-1.69381 -0.84383,-2.446602 -2.74247,-2.446602 z m 0,55.70765 v 47.050591 h 1.47641 c 1.89864,0 2.74247,-0.75301 2.74247,-2.44687 V 75.779841 c 0,-1.693863 -0.84383,-2.446602 -2.74247,-2.446602 z"
         fill="#ffffff"
         id="path3"
         style="stroke-width:0.278429" 
         />
      <path
         d="M 145.46849,134.87532 H 127.74853 L 135.55372,3.1340584 h 26.79061 l 7.80519,131.7412616 h -17.71967 l -0.84384,-35.758436 h -5.27397 z m 1.26546,-55.582342 -0.14064,5.520531 h 4.71142 l -0.14064,-5.520531 c -0.42192,-15.620735 -0.77352,-29.484902 -1.12511,-45.105637 h -2.25023 c -0.28128,15.558029 -0.63288,29.484902 -1.0548,45.105637 z"
         fill="#ffffff"
         id="path4"
         style="stroke-width:0.278429"
          />
      <path
         d="M 210.92906,3.1340584 V 134.87532 h -17.71997 v -56.5232 h -1.47671 c -1.89863,0 -2.74217,0.752739 -2.74217,2.446602 v 40.525968 c 0,6.58706 -0.42192,10.16291 -1.89864,13.55063 h -18.14188 c 1.47671,-3.38772 2.32055,-6.96357 2.32055,-13.55063 V 87.573907 c 0,-10.16291 4.6408,-14.303375 13.28983,-15.620735 v -1.881981 c -8.64903,-1.505744 -13.28983,-5.646208 -13.28983,-14.867996 v -33.24897 c 0,-13.174133 6.32847,-18.8201666 21.51693,-18.8201666 z M 191.73238,63.672243 h 1.47671 V 17.625589 h -1.47671 c -1.89863,0 -2.74217,0.752792 -2.74217,2.446602 v 41.15345 c 0,1.693862 0.84354,2.446602 2.74217,2.446602 z"
         fill="#ffffff"
         id="path5"
         style="stroke-width:0.278429" 
         />
      <path
         d="M 14.64136,293.39429 H -0.40734556 V 266.66978 H 3.9738897 c 0.762,-7.34007 1.524,-17.50298 1.524,-29.17137 l 0.381,-88.0784 H 40.738803 v 117.24977 h 4.7625 v 26.72451 H 30.452332 V 281.16127 H 14.64136 Z m 4.7625,-26.72451 h 5.524236 V 163.91154 h -3.6195 l -0.381,73.58687 c 0,11.29215 -0.761736,21.45506 -1.523736,29.17137 z"
         fill="#ffffff"
         id="path6"
         style="stroke-width:0.264583" 
         />
      <path
         d="M 63.085775,281.16127 H 47.083247 V 149.42001 h 16.383528 c 13.713354,0 19.428354,5.64604 19.428354,18.82017 v 39.39683 c 0,13.48793 -5.715,19.13387 -19.428354,19.13387 h -0.381 z m 0,-117.24973 v 48.36785 h 1.3335 c 1.7145,0 2.473855,-0.75274 2.473855,-2.44661 v -43.47464 c 0,-1.6938 -0.759355,-2.4466 -2.473855,-2.4466 z"
         fill="#ffffff"
         id="path7"
         style="stroke-width:0.264583" 
         />
      <path
         d="m 98.1854,281.16127 h -16.002 l 7.0485,-131.74126 h 24.1935 l 7.0485,131.74126 h -16.002 l -0.762,-35.75843 h -4.7625 z m 1.143,-55.58234 -0.127,5.52053 h 4.2545 l -0.127,-5.52053 c -0.381,-15.62073 -0.6985,-29.4849 -1.016,-45.10564 h -2.032 c -0.254,15.55803 -0.5715,29.48491 -0.9525,45.10564 z"
         fill="#ffffff"
         id="path8"
         style="stroke-width:0.264583" />
      <path
         d="m 136.47061,281.16127 h -14.4145 l -0.1905,-131.74126 h 20.574 l 1.143,21.70593 c 0.762,14.67977 1.651,34.06446 2.032,47.92863 h 1.905 c 0.381,-13.86417 1.2065,-33.37428 1.9685,-48.0541 l 1.143,-21.58046 h 20.447 v 131.74126 h -14.2875 l 0.1905,-32.87262 c 0.127,-19.6985 1.651,-52.06921 2.0955,-61.10288 h -2.032 l -6.223,93.9755 h -8.382 l -6.4135,-93.9755 h -2.032 c 0.4445,9.41017 1.8415,41.40438 2.0955,61.10288 z"
         fill="#ffffff"
         id="path9"
         style="stroke-width:0.264583"
          />
      <path
         d="m 188.40832,281.16127 h -15.99936 l 7.04586,-131.74126 h 24.1935 l 7.0485,131.74126 h -16.002 l -0.762,-35.75843 h -4.7625 z m 1.143,-55.58234 -0.127,5.52053 h 4.2545 l -0.127,-5.52053 c -0.381,-15.62073 -0.6985,-29.4849 -1.016,-45.10564 h -2.032 c -0.254,15.55803 -0.5715,29.48491 -0.9525,45.10564 z"
         fill="#ffffff"
         id="path10"
         style="stroke-width:0.264583" 
         />
      <path
         d="M 17.190682,134.87532 H -0.52916667 V 3.1340584 H 17.190682 V 58.465243 h 4.219004 V 3.1340584 H 39.129652 V 134.87532 H 21.409686 V 72.957001 h -4.219004 z"
         fill="#ffffff"
         id="path11"
         style="stroke-width:0.278429" 
         />
      <path
         d="M 43.139336,116.80798 V 21.201433 c 0,-13.1741335 6.328478,-18.820183 19.829266,-18.820183 13.500785,0 19.829261,5.6460495 19.829261,18.820183 v 95.606547 c 0,13.17414 -6.328476,18.82008 -19.829261,18.82008 -13.500788,0 -19.829266,-5.64594 -19.829266,-18.82008 z M 60.85901,19.1312 v 99.74688 c 0,1.50575 0.843836,2.25849 2.109592,2.25849 1.265751,0 2.109586,-0.75274 2.109586,-2.25849 V 19.1312 c 0,-1.505611 -0.843835,-2.258404 -2.109586,-2.258404 -1.265756,0 -2.109592,0.752793 -2.109592,2.258404 z"
         fill="#ffffff"
         id="path12"
         style="stroke-width:0.278429" 
         />
      <path
         d="M 104.95939,134.87532 H 86.817511 V 3.1340584 h 18.141879 c 15.18817,0 21.51694,5.6460336 21.51694,18.8201666 v 28.230354 c 0,9.221787 -4.6411,13.362251 -13.29012,14.867731 v 1.881981 c 8.64902,1.317625 13.29012,5.458089 13.29012,15.244498 v 33.876191 c 0,13.17413 -6.32877,18.82034 -21.51694,18.82034 z M 104.53748,17.625589 v 41.028037 h 1.47641 c 1.89864,0 2.74247,-0.753004 2.74247,-2.446602 V 20.072191 c 0,-1.69381 -0.84383,-2.446602 -2.74247,-2.446602 z m 0,55.70765 v 47.050591 h 1.47641 c 1.89864,0 2.74247,-0.75301 2.74247,-2.44687 V 75.779841 c 0,-1.693863 -0.84383,-2.446602 -2.74247,-2.446602 z"
         fill="#ffffff"
         id="path13"
         style="stroke-width:0.278429" />
      <path
         d="M 145.46849,134.87532 H 127.74853 L 135.55372,3.1340584 h 26.79061 l 7.80519,131.7412616 h -17.71967 l -0.84384,-35.758436 h -5.27397 z m 1.26546,-55.582342 -0.14064,5.520531 h 4.71142 l -0.14064,-5.520531 c -0.42192,-15.620735 -0.77352,-29.484902 -1.12511,-45.105637 h -2.25023 c -0.28128,15.558029 -0.63288,29.484902 -1.0548,45.105637 z"
         fill="#ffffff"
         id="path14"
         style="stroke-width:0.278429" />
      <path
         d="M 210.92906,3.1340584 V 134.87532 h -17.71997 v -56.5232 h -1.47671 c -1.89863,0 -2.74217,0.752739 -2.74217,2.446602 v 40.525968 c 0,6.58706 -0.42192,10.16291 -1.89864,13.55063 h -18.14188 c 1.47671,-3.38772 2.32055,-6.96357 2.32055,-13.55063 V 87.573907 c 0,-10.16291 4.6408,-14.303375 13.28983,-15.620735 v -1.881981 c -8.64903,-1.505744 -13.28983,-5.646208 -13.28983,-14.867996 v -33.24897 c 0,-13.174133 6.32847,-18.8201666 21.51693,-18.8201666 z M 191.73238,63.672243 h 1.47671 V 17.625589 h -1.47671 c -1.89863,0 -2.74217,0.752792 -2.74217,2.446602 v 41.15345 c 0,1.693862 0.84354,2.446602 2.74217,2.446602 z"
         fill="#ffffff"
         id="path15"
         style="stroke-width:0.278429" />
      <path
         d="M 14.64136,293.39429 H -0.40734556 V 266.66978 H 3.9738897 c 0.762,-7.34007 1.524,-17.50298 1.524,-29.17137 l 0.381,-88.0784 H 40.738803 v 117.24977 h 4.7625 v 26.72451 H 30.452332 V 281.16127 H 14.64136 Z m 4.7625,-26.72451 h 5.524236 V 163.91154 h -3.6195 l -0.381,73.58687 c 0,11.29215 -0.761736,21.45506 -1.523736,29.17137 z"
         fill="#ffffff"
         id="path16"
         style="stroke-width:0.264583"
          />
      <path
         d="M 63.085775,281.16127 H 47.083247 V 149.42001 h 16.383528 c 13.713354,0 19.428354,5.64604 19.428354,18.82017 v 39.39683 c 0,13.48793 -5.715,19.13387 -19.428354,19.13387 h -0.381 z m 0,-117.24973 v 48.36785 h 1.3335 c 1.7145,0 2.473855,-0.75274 2.473855,-2.44661 v -43.47464 c 0,-1.6938 -0.759355,-2.4466 -2.473855,-2.4466 z"
         fill="#ffffff"
         id="path17"
         style="stroke-width:0.264583"
          />
      <path
         d="m 98.1854,281.16127 h -16.002 l 7.0485,-131.74126 h 24.1935 l 7.0485,131.74126 h -16.002 l -0.762,-35.75843 h -4.7625 z m 1.143,-55.58234 -0.127,5.52053 h 4.2545 l -0.127,-5.52053 c -0.381,-15.62073 -0.6985,-29.4849 -1.016,-45.10564 h -2.032 c -0.254,15.55803 -0.5715,29.48491 -0.9525,45.10564 z"
         fill="#ffffff"
         id="path18"
         style="stroke-width:0.264583" 
         />
      <path
         d="m 136.47061,281.16127 h -14.4145 l -0.1905,-131.74126 h 20.574 l 1.143,21.70593 c 0.762,14.67977 1.651,34.06446 2.032,47.92863 h 1.905 c 0.381,-13.86417 1.2065,-33.37428 1.9685,-48.0541 l 1.143,-21.58046 h 20.447 v 131.74126 h -14.2875 l 0.1905,-32.87262 c 0.127,-19.6985 1.651,-52.06921 2.0955,-61.10288 h -2.032 l -6.223,93.9755 h -8.382 l -6.4135,-93.9755 h -2.032 c 0.4445,9.41017 1.8415,41.40438 2.0955,61.10288 z"
         fill="#ffffff"
         id="path19"
         style="stroke-width:0.264583" 
         />
      <path
         d="m 188.40832,281.16127 h -15.99936 l 7.04586,-131.74126 h 24.1935 l 7.0485,131.74126 h -16.002 l -0.762,-35.75843 h -4.7625 z m 1.143,-55.58234 -0.127,5.52053 h 4.2545 l -0.127,-5.52053 c -0.381,-15.62073 -0.6985,-29.4849 -1.016,-45.10564 h -2.032 c -0.254,15.55803 -0.5715,29.48491 -0.9525,45.10564 z"
         fill="#ffffff"
         id="path20"
         style="stroke-width:0.264583" 
         />
   </g>
</svg>