<svg  viewBox="0 0 1517 374" fill="none" xmlns="http://www.w3.org/2000/svg">
    <path
        d="M62.05 342H21.31V39.845H0.455V2.50001H82.905V39.845H62.05V342ZM156.519 342H89.1039V2.50001H156.519V39.845H129.844V145.09H154.094V182.435H129.844V304.655H156.519V342ZM198.373 342H157.633L175.578 2.50001H237.173L255.118 342H214.378L212.438 249.85H200.313L198.373 342ZM201.283 198.763L200.96 212.99H211.791L211.468 198.763C210.498 158.508 209.69 122.78 208.881 82.525H203.708C203.061 122.618 202.253 158.508 201.283 198.763ZM308.813 342H268.073V39.845H247.218V2.50001H329.668V39.845H308.813V342ZM376.607 342H335.867V2.50001H377.577C412.497 2.50001 427.047 17.05 427.047 51V152.527C427.047 187.285 412.497 201.835 377.577 201.835H376.607V342ZM376.607 39.845V164.49H380.002C384.367 164.49 386.307 162.55 386.307 158.185V46.15C386.307 41.785 384.367 39.845 380.002 39.845H376.607ZM479.605 241.605V182.435H606.675V241.605H479.605ZM750.515 49.06V295.44C750.515 329.39 735.965 343.94 704.925 343.94C673.885 343.94 659.335 329.39 659.335 295.44V200.38L700.075 195.53V300.775C700.075 304.655 702.015 306.595 704.925 306.595C707.835 306.595 709.775 304.655 709.775 300.775V181.95H688.435V145.09H709.775V43.725C709.775 39.845 707.835 37.905 704.925 37.905C702.015 37.905 700.075 39.845 700.075 43.725V131.51L659.335 126.66V49.06C659.335 15.11 673.885 0.560002 704.925 0.560002C735.965 0.560002 750.515 15.11 750.515 49.06ZM816.547 342H775.807V39.845H754.952V2.50001H837.402V39.845H816.547V342ZM841.695 295.44V49.06C841.695 15.11 856.245 0.560002 887.285 0.560002C918.325 0.560002 932.875 15.11 932.875 49.06V295.44C932.875 329.39 918.325 343.94 887.285 343.94C856.245 343.94 841.695 329.39 841.695 295.44ZM882.435 43.725V300.775C882.435 304.655 884.375 306.595 887.285 306.595C890.195 306.595 892.135 304.655 892.135 300.775V43.725C892.135 39.845 890.195 37.905 887.285 37.905C884.375 37.905 882.435 39.845 882.435 43.725ZM1013.4 342H976.703L976.218 2.50001H1028.6L1031.51 58.4367C1033.45 96.2667 1035.71 146.222 1036.68 181.95H1041.53C1042.5 146.222 1044.6 95.9433 1046.54 58.1133L1049.45 2.50001H1101.51V342H1065.13L1065.62 257.287C1065.94 206.523 1069.82 123.103 1070.95 99.8233H1065.78L1049.94 342H1028.6L1012.27 99.8233H1007.1C1008.23 124.073 1011.78 206.523 1012.43 257.287L1013.4 342ZM1110.72 295.44V49.06C1110.72 15.11 1125.27 0.560002 1156.31 0.560002C1187.35 0.560002 1201.9 15.11 1201.9 49.06V295.44C1201.9 329.39 1187.35 343.94 1156.31 343.94C1125.27 343.94 1110.72 329.39 1110.72 295.44ZM1151.46 43.725V300.775C1151.46 304.655 1153.4 306.595 1156.31 306.595C1159.22 306.595 1161.16 304.655 1161.16 300.775V43.725C1161.16 39.845 1159.22 37.905 1156.31 37.905C1153.4 37.905 1151.46 39.845 1151.46 43.725ZM1242.21 373.525H1203.9V304.655H1215.05C1216.99 285.74 1218.93 259.55 1218.93 229.48L1219.9 2.50001H1308.66V304.655H1320.78V373.525H1282.47V342H1242.21V373.525ZM1254.34 304.655H1268.4V39.845H1259.19L1258.22 229.48C1258.22 258.58 1256.28 284.77 1254.34 304.655ZM1365.55 342H1324.81V2.50001H1365.55V145.09H1375.25V2.50001H1415.99V342H1375.25V182.435H1365.55V342ZM1425.21 295.44V49.06C1425.21 15.11 1439.76 0.560002 1470.8 0.560002C1501.84 0.560002 1516.39 15.11 1516.39 49.06V295.44C1516.39 329.39 1501.84 343.94 1470.8 343.94C1439.76 343.94 1425.21 329.39 1425.21 295.44ZM1465.95 43.725V300.775C1465.95 304.655 1467.89 306.595 1470.8 306.595C1473.71 306.595 1475.65 304.655 1475.65 300.775V43.725C1475.65 39.845 1473.71 37.905 1470.8 37.905C1467.89 37.905 1465.95 39.845 1465.95 43.725Z"
        fill="#DE4E4C" />
</svg>