<svg viewBox="0 0 335 522" fill="none" xmlns="http://www.w3.org/2000/svg">
    <path d="M34.3009 159.967H11.7878V18.2751H0L0.263245 0.762695H45.8255V18.2751H34.3009V159.967Z"
        fill="#DE4E4C" />
    <path
        d="M86.5049 159.967H49.2511V0.762695H86.5049V18.2751H71.7642V67.6283H85.1648V85.1408H71.7642V142.454H86.5049V159.967Z"
        fill="#DE4E4C" />
    <path
        d="M109.634 159.967H87.1205L97.037 0.762695H131.075L140.991 159.967H118.478L117.406 116.754H110.706L109.634 159.967ZM111.242 92.7977L111.063 99.4691H117.049L116.87 92.7977C116.334 73.9207 115.887 57.1664 115.441 38.2893H112.582C112.224 57.0905 111.778 73.9207 111.242 92.7977Z"
        fill="#DE4E4C" />
    <path d="M170.663 159.967H148.15V18.2751H136.626V0.762695H182.188V18.2751H170.663V159.967Z"
        fill="#DE4E4C" />
    <path
        d="M208.126 159.967H185.613V0.762695H208.663C227.959 0.762695 236 7.58571 236 23.5061V71.1156C236 87.4151 227.959 94.2381 208.663 94.2381H208.126V159.967ZM208.126 18.2751V76.7257H210.003C212.415 76.7257 213.487 75.8159 213.487 73.769V21.2318C213.487 19.1849 212.415 18.2751 210.003 18.2751H208.126Z"
        fill="#DE4E4C" />
    <path d="M260.608 92.7977V65.0508H334.659V92.7977H260.608Z" fill="#DE4E4C" />
    <path
        d="M50.3866 196.103V311.639C50.3866 327.56 42.3462 334.383 25.1933 334.383C8.04046 334.383 6.10426e-05 327.56 6.10426e-05 311.639V267.062L22.5132 264.788V314.141C22.5132 315.961 23.5852 316.87 25.1933 316.87C26.8014 316.87 27.8735 315.961 27.8735 314.141V258.42H16.0809V241.135H27.8735V193.601C27.8735 191.782 26.8014 190.872 25.1933 190.872C23.5852 190.872 22.5132 191.782 22.5132 193.601V234.767L6.10426e-05 232.492V196.103C6.10426e-05 180.182 8.04046 173.359 25.1933 173.359C42.3462 173.359 50.3866 180.182 50.3866 196.103Z"
        fill="#DE4E4C" />
    <path d="M86.8762 333.473H64.363V191.782H52.8385V174.269H98.4007V191.782H86.8762V333.473Z"
        fill="#DE4E4C" />
    <path
        d="M100.773 311.639V196.103C100.773 180.182 108.813 173.359 125.966 173.359C143.119 173.359 151.16 180.182 151.16 196.103V311.639C151.16 327.56 143.119 334.383 125.966 334.383C108.813 334.383 100.773 327.56 100.773 311.639ZM123.286 193.601V314.141C123.286 315.961 124.358 316.87 125.966 316.87C127.574 316.87 128.646 315.961 128.646 314.141V193.601C128.646 191.782 127.574 190.872 125.966 190.872C124.358 190.872 123.286 191.782 123.286 193.601Z"
        fill="#DE4E4C" />
    <path
        d="M20.5457 506.979H0.26606L-0.00195312 347.776H28.9435L30.5516 374.006C31.6236 391.746 32.8744 415.172 33.4104 431.926H36.0905C36.6265 415.172 37.7879 391.595 38.86 373.855L40.4681 347.776H69.2348V506.979H49.1338L49.4018 467.254C49.5805 443.45 51.7246 404.331 52.35 393.414H49.4912L40.7361 506.979H28.9435L19.9204 393.414H17.0616C17.6869 404.786 19.6524 443.45 20.0097 467.254L20.5457 506.979Z"
        fill="#DE4E4C" />
    <path
        d="M74.3236 485.146V369.609C74.3236 353.689 82.364 346.866 99.5169 346.866C116.67 346.866 124.71 353.689 124.71 369.609V485.146C124.71 501.066 116.67 507.889 99.5169 507.889C82.364 507.889 74.3236 501.066 74.3236 485.146ZM96.8367 367.107V487.648C96.8367 489.467 97.9088 490.377 99.5169 490.377C101.125 490.377 102.197 489.467 102.197 487.648V367.107C102.197 365.288 101.125 364.378 99.5169 364.378C97.9088 364.378 96.8367 365.288 96.8367 367.107Z"
        fill="#DE4E4C" />
    <path
        d="M146.989 521.763H125.816V489.467H131.98C133.052 480.597 134.124 468.316 134.124 454.215L134.66 347.776H183.707V489.467H190.407V521.763H169.234V506.979H146.989V521.763ZM153.689 489.467H161.461V365.288H156.369L155.833 454.215C155.833 467.861 154.761 480.142 153.689 489.467Z"
        fill="#DE4E4C" />
    <path
        d="M215.146 506.979H192.633V347.776H215.146V414.641H220.506V347.776H243.019V506.979H220.506V432.154H215.146V506.979Z"
        fill="#DE4E4C" />
    <path
        d="M248.114 485.146V369.609C248.114 353.689 256.154 346.866 273.307 346.866C290.46 346.866 298.5 353.689 298.5 369.609V485.146C298.5 501.066 290.46 507.889 273.307 507.889C256.154 507.889 248.114 501.066 248.114 485.146ZM270.627 367.107V487.648C270.627 489.467 271.699 490.377 273.307 490.377C274.915 490.377 275.987 489.467 275.987 487.648V367.107C275.987 365.288 274.915 364.378 273.307 364.378C271.699 364.378 270.627 365.288 270.627 367.107Z"
        fill="#DE4E4C" />
</svg>