<svg
    viewBox="0 0 1576 547"
    fill="none"
    xmlns="http://www.w3.org/2000/svg"
>
    <path
        d="M60.4776 500.765H0V2.84526H60.4776V211.971H74.877V2.84526H135.355V500.765H74.877V266.743H60.4776V500.765Z"
        fill="#ffffff" />
    <path
        d="M149.04 432.479V71.1314C149.04 21.3394 170.639 0 216.717 0C262.795 0 284.394 21.3394 284.394 71.1314V432.479C284.394 482.271 262.795 503.61 216.717 503.61C170.639 503.61 149.04 482.271 149.04 432.479ZM209.517 63.3069V440.303C209.517 445.994 212.397 448.839 216.717 448.839C221.037 448.839 223.917 445.994 223.917 440.303V63.3069C223.917 57.6164 221.037 54.7712 216.717 54.7712C212.397 54.7712 209.517 57.6164 209.517 63.3069Z"
        fill="#ffffff" />
    <path
        d="M360.031 500.765H298.113V2.84526H360.031C411.868 2.84526 433.468 24.1846 433.468 73.9766V180.674C433.468 215.528 417.628 231.177 388.109 236.867V243.98C417.628 248.96 433.468 264.609 433.468 301.597V429.633C433.468 479.425 411.868 500.765 360.031 500.765ZM358.591 57.6164V212.683H363.63C370.11 212.683 372.99 209.837 372.99 203.436V66.8634C372.99 60.4616 370.11 57.6164 363.63 57.6164H358.591ZM358.591 268.165V445.994H363.63C370.11 445.994 372.99 443.148 372.99 436.746V277.412C372.99 271.01 370.11 268.165 363.63 268.165H358.591Z"
        fill="#ffffff" />
    <path
        d="M498.288 500.765H437.81L464.449 2.84526H555.885L582.524 500.765H522.047L519.167 365.615H501.167L498.288 500.765ZM502.607 290.69L502.127 311.555H518.207L517.727 290.69C516.287 231.651 515.087 179.251 513.887 120.212H506.207C505.247 179.014 504.047 231.651 502.607 290.69Z"
        fill="#ffffff" />
    <path
        d="M721.704 2.84526V500.765H661.226V287.134H656.186C649.706 287.134 646.827 289.979 646.827 296.381V449.55C646.827 474.446 645.387 487.961 640.347 500.765H578.429C583.469 487.961 586.349 474.446 586.349 449.55V321.988C586.349 283.577 602.188 267.928 631.707 262.949V255.836C602.188 250.145 586.349 234.496 586.349 199.642V73.9766C586.349 24.1846 607.948 2.84526 659.786 2.84526H721.704ZM656.186 231.651H661.226V57.6164H656.186C649.706 57.6164 646.827 60.4616 646.827 66.8634V222.404C646.827 228.806 649.706 231.651 656.186 231.651Z"
        fill="#ffffff" />
</svg>