<svg viewBox="0 0 1576 547" fill="none" xmlns="http://www.w3.org/2000/svg">
<path d="M835.003 547H778.126V445.994H794.685C797.565 418.252 800.445 379.841 800.445 335.74L801.885 2.84526H933.639V445.994H951.639V547H894.761V500.765H835.003V547ZM853.003 445.994H873.882V57.6164H860.202L858.762 335.74C858.762 378.419 855.883 416.83 853.003 445.994Z" fill="#ffffff"/>
<path d="M1018.1 500.765H957.618V2.84526H1019.54C1071.37 2.84526 1092.97 24.1846 1092.97 73.9766V222.878C1092.97 273.856 1071.37 295.195 1019.54 295.195H1018.1V500.765ZM1018.1 57.6164V240.424H1023.14C1029.62 240.424 1032.49 237.579 1032.49 231.177V66.8634C1032.49 60.4616 1029.62 57.6164 1023.14 57.6164H1018.1Z" fill="#ffffff"/>
<path d="M1150.76 500.765H1090.28L1116.92 2.84526H1208.36L1235 500.765H1174.52L1171.64 365.615H1153.64L1150.76 500.765ZM1155.08 290.69L1154.6 311.555H1170.68L1170.2 290.69C1168.76 231.651 1167.56 179.251 1166.36 120.212H1158.68C1157.72 179.014 1156.52 231.651 1155.08 290.69Z" fill="#ffffff"/>
<path d="M1295.46 500.765H1240.98L1240.26 2.84526H1318.02L1322.34 84.8834C1325.22 140.366 1328.58 213.631 1330.02 266.031H1337.22C1338.66 213.631 1341.78 139.892 1344.66 84.4092L1348.98 2.84526H1426.26V500.765H1372.26L1372.98 376.522C1373.46 302.071 1379.22 179.725 1380.9 145.582H1373.22L1349.7 500.765H1318.02L1293.78 145.582H1286.1C1287.78 181.148 1293.06 302.071 1294.02 376.522L1295.46 500.765Z" fill="#ffffff"/>
<path d="M1491.76 500.765H1431.29L1457.92 2.84526H1549.36L1576 500.765H1515.52L1512.64 365.615H1494.64L1491.76 500.765ZM1496.08 290.69L1495.6 311.555H1511.68L1511.2 290.69C1509.76 231.651 1508.56 179.251 1507.36 120.212H1499.68C1498.72 179.014 1497.52 231.651 1496.08 290.69Z" fill="#ffffff"/>
</svg>
