<?xml version="1.0" encoding="UTF-8" standalone="no"?>

<svg
   version="1.1"
   id="svg1"
   viewBox="0 0 345.75827 344.56241"
   xmlns="http://www.w3.org/2000/svg"
   xmlns:svg="http://www.w3.org/2000/svg">
   <defs
      id="defs1" />
   <g
      id="g1"
      transform="translate(-6.2016919,-2.989945)">
      <path
         fill="currentColor"
         d="M 150.13039,346.01145 C 115.70821,339.68794 85.440126,324.4773 60.725305,301.08266 -9.1688642,234.922 -12.265514,126.39327 53.750945,56.651432 85.441136,23.172939 125.93937,4.8755131 172.13039,3.1666471 c 23.58466,-0.872529 40.66481,1.427872 60.91595,8.2043259 102.18074,34.191812 148.61545,149.313817 98.82685,245.013807 -23.08604,44.37429 -66.45671,76.9554 -117.7428,88.45129 -13.42823,3.00996 -50.32477,3.68758 -64,1.17538 z m 60.9551,-9.43255 c 41.65096,-7.90106 80.48948,-33.96512 104.68835,-70.25511 36.3356,-54.49092 36.78504,-125.44826 1.14207,-180.309168 C 306.7009,70.291896 284.59865,48.173028 268.93228,37.994925 219.66998,5.9902771 157.66427,2.4879241 105.46373,28.761507 32.012465,65.730996 -2.5419754,149.83972 23.591455,228.04626 c 19.87502,59.47772 73.290671,102.79908 136.332535,110.56892 12.75889,1.57252 37.28295,0.59643 51.1615,-2.03628 z m 8.60046,-70.75486 c -0.48889,-0.48889 -0.88889,-4.07746 -0.88889,-7.9746 0,-7.58421 0.15255,-7.72801 9.29729,-8.76324 4.26459,-0.48278 8.62319,-8.12222 11.28712,-19.78325 3.15922,-13.8291 4.70601,-44.86642 4.72829,-94.87645 0.0198,-44.386168 0.12651,-46.343078 2.59964,-47.666658 3.26313,-1.74637 18.81102,-1.79962 23.33419,-0.0799 l 3.42013,1.30033 v 80.699658 80.69967 h 5.83674 c 7.38193,0 9.09599,2.0451 8.57388,10.22974 -0.3743,5.86767 -0.70541,6.43693 -3.74395,6.43693 -2.78609,0 -3.40193,-0.71142 -3.75115,-4.33334 l -0.41781,-4.33333 h -26.58218 -26.58219 v 3.06667 c 0,4.66927 -4.45246,8.03643 -7.11111,5.37778 z m 46.66062,-64.66249 c -0.48556,-26.51993 -0.88285,-61.61993 -0.88285,-78 V 93.379602 h -6.66666 -6.66667 l -0.0181,32.999998 c -0.0317,57.68173 -3.24046,101.14577 -8.57621,116.16763 -1.13978,3.20886 -2.07234,6.05886 -2.07234,6.33333 0,0.27447 5.79729,0.49903 12.88285,0.49903 h 12.88285 z M 72.966756,256.67437 c -0.46,-1.19875 -0.83637,-39.93047 -0.83637,-86.0705 V 86.712932 h 3.12171 3.1217 l 0.8748,26.999998 c 0.48113,14.85 0.87637,33.14999 0.87829,40.66666 l 0.004,13.66666 h 12.66667 12.666674 V 127.3796 86.712932 h 3.18163 3.18163 l 0.90412,36.333328 c 0.49727,19.98333 0.71553,58.52526 0.48503,85.64872 -0.39965,47.02855 -0.53533,49.33777 -2.92598,49.79786 -1.37879,0.26536 -3.0196,-0.32657 -3.64625,-1.31539 -0.62664,-0.98882 -1.14854,-19.94786 -1.15977,-42.13119 l -0.0204,-40.33334 H 92.816566 80.168886 l -0.35232,41.66667 c -0.34945,41.3261 -0.37547,41.66997 -3.18263,42.0705 -1.66937,0.23818 -3.17336,-0.49018 -3.66667,-1.77572 z m 58.435964,-99.39349 c -0.48677,-0.78762 0.36716,-2.76494 1.89763,-4.39405 l 2.78267,-2.96202 -2.80479,-2.80479 c -4.67776,-4.67776 0.57158,-8.21763 5.53076,-3.72964 1.99176,1.80252 2.46445,1.74278 4.56359,-0.57675 2.33749,-2.58289 6.09115,-2.41632 6.09115,0.27029 0,0.78046 -0.94708,2.46553 -2.10462,3.7446 -1.9191,2.12058 -1.90897,2.62416 0.11493,5.71302 3.57819,5.46101 -0.0297,8.3771 -4.90533,3.96473 -2.26888,-2.05331 -2.60776,-2.05331 -4.87664,0 -2.81389,2.54654 -5.02586,2.81897 -6.28935,0.77461 z m 38.52412,-0.61762 c -0.43259,-1.12731 0.27923,-3.22731 1.58183,-4.66667 2.20687,-2.43857 2.2179,-2.78325 0.16171,-5.05532 -1.21366,-1.34108 -2.20665,-3.14108 -2.20665,-4 0,-2.22899 4.69878,-1.93284 6.65077,0.41917 1.43843,1.7332 2.07217,1.64402 5.06901,-0.71329 3.05893,-2.40615 3.6409,-2.47831 5.4442,-0.675 1.80331,1.8033 1.70428,2.35431 -0.92644,5.15458 l -2.94559,3.13544 2.68735,2.43203 c 1.47805,1.33761 2.68736,2.95786 2.68736,3.60055 0,2.41834 -4.19869,2.65166 -6.71633,0.37323 -2.43857,-2.20688 -2.78325,-2.2179 -5.05532,-0.16171 -3.04877,2.7591 -5.41125,2.81676 -6.4319,0.15699 z m 38.20355,-0.45375 c 0,-1.37687 0.88897,-3.24119 1.9755,-4.14292 1.74511,-1.44831 1.74511,-1.96844 0,-4.45993 -1.08653,-1.55123 -1.9755,-3.58692 -1.9755,-4.52375 0,-2.3385 3.97103,-2.14284 6.70384,0.33032 2.01398,1.82262 2.42226,1.82262 3.93491,0 0.92827,-1.11851 2.8143,-2.03364 4.19118,-2.03364 3.06885,0 3.36973,4.28783 0.46977,6.69458 -1.82263,1.51265 -1.82263,1.92093 0,3.93492 2.40627,2.6589 2.69104,6.70383 0.47195,6.70383 -0.85892,0 -2.65892,-0.99299 -4,-2.20665 -2.26888,-2.05331 -2.60775,-2.05331 -4.87664,0 -3.28785,2.97547 -6.89501,2.82022 -6.89501,-0.29676 z"
         id="path1" />
   </g>
</svg>